<svg xmlns="http://www.w3.org/2000/svg" width="44.521" height="15.772" viewBox="0 0 44.521 15.772">
    <defs>
        <style>
            .cls-1,.cls-2{fill:#face32}.cls-2{stroke:#fff;fill-rule:evenodd}.cls-3{fill:#fff}.cls-4{fill:#4c4a4a}
        </style>
    </defs>
    <g id="trusted" transform="translate(-194.479 -566.484)">
        <rect id="Rectangle_7273" width="31.5" height="10" class="cls-1" data-name="Rectangle 7273" rx="1.5" transform="translate(207.5 569.5)"/>
        <path id="Path_3849" d="M13.258 1.281v2.057h-2.253V.607L8.592 0 6.179.607v2.731H3.926V1.281l-2.334.71.608 10.751 6.391 1.991 6.391-1.991.609-10.751z" class="cls-2" data-name="Path 3849" transform="translate(193.408 567)"/>
        <path id="Path_3853" d="M3.853-7.139H2.339v-5.879H.4v-1.26h5.391v1.26H3.853z" class="cls-3" data-name="Path 3853" transform="translate(198.9 586.139)"/>
        <path id="Path_4184" d="M.176-15.4h4.551v1.042H3.062v4.4H1.833v-4.4H.176zm6.192 2.015a1.522 1.522 0 0 1 .568-.591 1.661 1.661 0 0 1 .817-.21v1.128a1.64 1.64 0 0 0-.187-.008 1.236 1.236 0 0 0-.875.3 1.036 1.036 0 0 0-.323.8v2.015H5.17v-4.189h1.2zm6.013-.755v4.185h-1.19v-.739a1.473 1.473 0 0 1-1.4.786 1.443 1.443 0 0 1-1.1-.432 1.634 1.634 0 0 1-.408-1.171v-2.629h1.2v2.287a.878.878 0 0 0 .21.622.748.748 0 0 0 .576.226.86.86 0 0 0 .677-.3 1.143 1.143 0 0 0 .249-.762v-2.073zm3.8 1.229a3.489 3.489 0 0 0-.677-.3 2.025 2.025 0 0 0-.6-.105.687.687 0 0 0-.35.078.254.254 0 0 0-.134.238.289.289 0 0 0 .179.264 3.427 3.427 0 0 0 .583.21 6.155 6.155 0 0 1 .731.261 1.364 1.364 0 0 1 .5.381 1.007 1.007 0 0 1 .21.665 1.127 1.127 0 0 1-.478.969 2.039 2.039 0 0 1-1.225.346 3.225 3.225 0 0 1-.988-.152 2.546 2.546 0 0 1-.825-.432l.389-.809a2.454 2.454 0 0 0 .712.385 2.272 2.272 0 0 0 .743.136.779.779 0 0 0 .385-.082.265.265 0 0 0 .144-.245.31.31 0 0 0-.183-.28 3.056 3.056 0 0 0-.587-.218 5.942 5.942 0 0 1-.71-.252 1.269 1.269 0 0 1-.486-.377 1.02 1.02 0 0 1-.2-.657 1.126 1.126 0 0 1 .467-.965 1.947 1.947 0 0 1 1.182-.342 3.142 3.142 0 0 1 .856.121 2.857 2.857 0 0 1 .778.346zm3.835 2.723a1.958 1.958 0 0 1-.517.214 2.261 2.261 0 0 1-.572.074 1.351 1.351 0 0 1-.949-.335 1.231 1.231 0 0 1-.366-.957v-1.937h-.583v-.825h.583V-15.1H18.8v1.151h1.136v.832H18.8v1.727q0 .482.381.482a1.347 1.347 0 0 0 .583-.156z" class="cls-4" data-name="Path 4184" transform="translate(213.324 586.9)"/>
    </g>
</svg>
