<svg xmlns="http://www.w3.org/2000/svg" width="37" height="8.818" viewBox="0 0 37 8.818">
    <defs>
        <style>
            .cls-1{fill:#2192d9;fill-rule:evenodd}.cls-2{fill:#3d71b7}
        </style>
    </defs>
    <g id="verified" transform="translate(-.835 -.175)">
        <g id="Artboard-43" transform="translate(.835 .175)">
            <g id="Group-2">
                <path id="Combined-Shape" d="M4.59 6.179l4.434-6h2.846L5.48 8.993H3.424L.835 3.163h2.589z" class="cls-1" transform="translate(-.835 -.175)"/>
                <path id="Combined-Shape-2" d="M13.543 2.923a1.717 1.717 0 0 1 .708.62 2.529 2.529 0 0 1 .351.969 7.838 7.838 0 0 1 .098 1.267v.349h-3.2v.484a3.278 3.278 0 0 0 .041.524 1.666 1.666 0 0 0 .135.451.856.856 0 0 0 .246.315.592.592 0 0 0 .375.118.665.665 0 0 0 .6-.282 2.021 2.021 0 0 0 .258-.856H14.6a2.374 2.374 0 0 1-.585 1.611 2.284 2.284 0 0 1-1.7.552 2.773 2.773 0 0 1-1.37-.282 1.778 1.778 0 0 1-.726-.743 2.845 2.845 0 0 1-.287-1.036c-.028-.308.006-.548 0-.856l2.48-3.428a2.612 2.612 0 0 1 1.131.223zM13.151 5.2q-.012-.349-.047-.614a1.526 1.526 0 0 0-.123-.451.636.636 0 0 0-.246-.282.769.769 0 0 0-.4-.1.706.706 0 0 0-.4.107.778.778 0 0 0-.252.282 1.356 1.356 0 0 0-.135.389 2.272 2.272 0 0 0-.041.428V5.2zm2.388-2.343h1.545v.811h.023a2.226 2.226 0 0 1 .6-.7 1.379 1.379 0 0 1 .855-.265q.07 0 .146.006t.146.017v1.487Q18.723 4.2 18.6 4.2t-.252-.006a1.626 1.626 0 0 0-.421.056 1.142 1.142 0 0 0-.386.186.938.938 0 0 0-.281.338 1.128 1.128 0 0 0-.105.513v3.634h-1.616zM19.5.788h1.615v1.329H19.5zm0 2.073h1.615v6.06H19.5zm3.1 1.059h-.819V2.861h.819v-.687a1.791 1.791 0 0 1 .117-.687 1.087 1.087 0 0 1 .334-.451 1.347 1.347 0 0 1 .533-.242 3.117 3.117 0 0 1 .7-.073q.433 0 .866.034v1.1a.917.917 0 0 0-.164-.011h-.152a.781.781 0 0 0-.48.113.449.449 0 0 0-.14.372v.529h.937V3.92h-.937v5H22.6zM25.782.788H27.4v1.329h-1.618zm0 2.073H27.4v6.06h-1.618zM31.565 5.2q-.012-.349-.047-.614a1.526 1.526 0 0 0-.123-.451.636.636 0 0 0-.246-.282.769.769 0 0 0-.4-.1.706.706 0 0 0-.4.107.778.778 0 0 0-.252.282 1.356 1.356 0 0 0-.135.389 2.272 2.272 0 0 0-.041.428V5.2zm-1.651.924v.484a3.278 3.278 0 0 0 .041.524 1.666 1.666 0 0 0 .135.451.856.856 0 0 0 .246.315.592.592 0 0 0 .375.118.665.665 0 0 0 .6-.282 2.021 2.021 0 0 0 .258-.856h1.452a2.374 2.374 0 0 1-.585 1.611 2.284 2.284 0 0 1-1.7.552 2.773 2.773 0 0 1-1.37-.282 1.778 1.778 0 0 1-.726-.743 2.845 2.845 0 0 1-.287-1.036q-.053-.571-.053-1.145a7.6 7.6 0 0 1 .088-1.172 2.754 2.754 0 0 1 .351-1 1.876 1.876 0 0 1 .755-.7A2.822 2.822 0 0 1 30.8 2.7a2.634 2.634 0 0 1 1.153.22 1.717 1.717 0 0 1 .708.62 2.529 2.529 0 0 1 .351.969 7.837 7.837 0 0 1 .094 1.267v.349zm7.27 2.152h-.023a1.588 1.588 0 0 1-.6.6 1.815 1.815 0 0 1-.825.169 1.612 1.612 0 0 1-1.463-.732 4.687 4.687 0 0 1-.473-2.422 4.786 4.786 0 0 1 .468-2.439 1.6 1.6 0 0 1 1.465-.752 1.571 1.571 0 0 1 .778.18 1.806 1.806 0 0 1 .579.541h.023V.878h1.616v8.043h-1.545zm-1.767-2.385a5.29 5.29 0 0 0 .158 1.493.657.657 0 0 0 .685.5.664.664 0 0 0 .7-.5 5.291 5.291 0 0 0 .158-1.493 5.291 5.291 0 0 0-.162-1.491.664.664 0 0 0-.7-.5.657.657 0 0 0-.685.5 5.29 5.29 0 0 0-.154 1.491z" class="cls-2" data-name="Combined-Shape" transform="translate(-1.729 -.229)"/>
            </g>
        </g>
    </g>
</svg>
